<?xml version="1.0" standalone="no"?>
<!DOCTYPE svg PUBLIC "-//W3C//DTD SVG 20010904//EN"
 "http://www.w3.org/TR/2001/REC-SVG-20010904/DTD/svg10.dtd">
<svg version="1.0" xmlns="http://www.w3.org/2000/svg"
 width="900.000000pt" height="900.000000pt" viewBox="0 0 900.000000 900.000000"
 preserveAspectRatio="xMidYMid meet">

<g transform="translate(0.000000,900.000000) scale(0.100000,-0.100000)"
fill="#cce8f5" stroke="none">
<path d="M5688 8257 c-30 -34 -226 -267 -435 -517 -511 -611 -770 -919 -1412
-1683 -152 -181 -284 -339 -293 -351 l-17 -23 392 -219 c369 -206 396 -223
468 -294 62 -63 81 -89 109 -155 29 -69 34 -94 38 -181 3 -76 0 -116 -13 -160
-56 -196 -206 -338 -400 -379 -88 -18 -134 -19 -212 0 -46 11 -737 228 -863
271 -13 5 -13 3 0 -10 8 -8 105 -90 216 -183 458 -384 805 -675 1075 -901
l287 -241 68 82 c38 45 161 192 274 327 336 401 674 803 835 995 359 428 830
990 1224 1460 120 143 295 352 390 464 94 113 171 207 170 210 0 3 -111 98
-246 211 -136 113 -319 266 -407 340 -594 500 -1163 977 -1177 987 -15 11 -24
4 -71 -50z m-370 -1727 c363 -87 628 -400 649 -766 6 -107 -9 -205 -49 -311
-30 -80 -107 -192 -180 -258 -232 -213 -566 -254 -863 -106 -212 105 -354 267
-434 494 -34 97 -35 108 -36 237 0 153 17 228 83 355 55 107 191 240 302 294
47 22 119 50 160 61 103 26 258 26 368 0z"/>
<path d="M4984 6239 c-27 -17 -63 -44 -79 -60 l-30 -28 -49 41 -48 42 -37 -45
c-20 -24 -48 -57 -63 -74 l-26 -30 51 -46 51 -45 -17 -60 c-32 -113 -14 -202
54 -273 105 -109 230 -109 419 1 109 62 170 62 170 -2 0 -57 -85 -143 -197
-198 -29 -14 -53 -29 -53 -33 0 -6 103 -154 120 -172 12 -13 112 40 167 88
l50 44 48 -40 c26 -21 51 -39 55 -39 8 0 99 103 115 129 6 10 -7 28 -45 61
l-53 47 16 48 c23 66 22 178 -2 231 -23 51 -78 107 -134 136 -32 17 -59 22
-114 22 -70 0 -78 -3 -205 -67 -73 -37 -140 -67 -148 -67 -23 0 -40 21 -40 48
0 32 96 132 163 167 28 15 53 29 55 30 7 5 -123 175 -133 175 -6 0 -33 -14
-61 -31z"/>
<path d="M2930 7039 c-80 -17 -762 -208 -1102 -309 -77 -23 -120 -30 -184 -30
l-84 0 0 -774 0 -775 68 19 c37 10 130 35 207 55 77 20 171 45 210 56 91 25
165 25 216 -1 22 -12 90 -73 152 -136 115 -119 195 -183 282 -226 55 -28 315
-115 887 -298 408 -130 445 -137 542 -104 64 22 147 100 177 166 34 78 32 186
-5 261 -14 30 -43 70 -64 89 -20 18 -277 168 -570 332 -416 233 -539 306 -560
334 -24 31 -27 45 -27 107 0 63 3 76 29 109 48 64 89 76 257 76 l145 0 245
292 c134 160 301 359 371 442 70 83 128 153 128 156 0 3 -73 18 -163 34 -89
15 -247 44 -352 63 -473 86 -632 98 -805 62z"/>
<path d="M850 6858 c0 -18 7 -91 14 -163 8 -71 24 -236 36 -365 11 -129 36
-399 55 -600 19 -201 44 -468 55 -595 11 -126 23 -247 26 -267 l6 -38 144 0
144 0 0 1030 0 1030 -240 0 -240 0 0 -32z"/>
<path d="M3005 3201 c-90 -22 -172 -92 -214 -180 -22 -47 -26 -70 -26 -141 0
-126 27 -176 158 -288 237 -204 463 -405 616 -546 322 -297 498 -418 742 -511
182 -70 150 -68 1039 -75 887 -7 850 -4 983 -72 58 -29 163 -124 218 -195 l24
-32 300 29 c165 16 356 34 425 40 69 6 285 26 480 45 195 19 395 37 443 41 75
6 88 9 84 23 -8 26 -243 629 -285 731 -213 512 -403 788 -643 935 -87 54 -228
103 -362 128 -120 22 -136 22 -1007 22 l-885 0 -51 -27 c-110 -58 -164 -145
-164 -264 0 -101 22 -158 89 -225 90 -90 85 -89 563 -89 438 0 457 -2 492 -51
26 -38 20 -77 -18 -115 l-34 -34 -639 0 c-692 0 -749 4 -908 55 -112 37 -178
75 -419 244 -508 355 -781 535 -831 548 -53 14 -122 15 -170 4z"/>
<path d="M8410 1109 c-70 -8 -229 -23 -1370 -129 -239 -22 -462 -42 -495 -45
-33 -3 -75 -8 -92 -11 l-33 -5 0 -139 0 -140 1035 0 1035 0 0 240 c0 132 -1
239 -2 239 -2 -1 -37 -6 -78 -10z"/>
</g>
</svg>
