<?xml version="1.0" encoding="utf-8"?>
<svg viewBox="-167.498 -312.663 686.109 509.305" xmlns="http://www.w3.org/2000/svg">
  <path fill="#99e6f2" d="M 535 41 C 525.6 31.6 525.6 16.4 535 7.1 C 544.4 -2.2 559.6 -2.3 568.9 7.1 L 632.9 71.1 C 637.4 75.6 639.9 81.7 639.9 88.1 C 639.9 94.5 637.4 100.6 632.9 105.1 L 568.9 169.1 C 559.5 178.5 544.3 178.5 535 169.1 C 525.7 159.7 525.6 144.5 535 135.2 L 558 112.2 L 384 112 C 370.7 112 360 101.3 360 88 C 360 74.7 370.7 64 384 64 L 558.1 64 L 535 41 Z M 32 342.5 L 32 128 C 32 92.7 60.7 64 96 64 L 337.9 64 C 334.2 71.2 332 79.3 332 88 C 332 116.7 355.3 140 384 140 L 501.4 140 C 497.4 157 502 175.5 515.2 188.8 C 535.5 209.1 568.4 209.1 588.7 188.8 L 608 169.5 L 608 384 C 608 419.3 579.3 448 544 448 L 302.1 448 C 302.164 447.875 302.228 447.749 302.292 447.624 C 301.659 447.636 301.007 447.641 300.335 447.642 C 295.322 448.271 289.384 448.208 284.817 447.602 C 283.185 447.645 281.457 447.694 279.65 447.747 C 277.58 447.84 275.478 447.9 273.396 447.93 C 256.538 448.419 235.4 448.952 221.809 448 L 114.179 448.731 C 113.616 448.834 97.821 448.472 92.209 448.401 C 84.853 448.307 55.433 445.964 52.224 444.87 C 51.889 444.814 47.065 443.2 45.322 441.927 C 40.705 439.803 38.39 435.109 35.911 430.255 C 31.978 422.553 30.838 406.912 31.213 397.209 C 31.205 396.09 31.224 395 31.258 393.964 C 31.277 393.378 31.311 392.783 31.358 392.182 C 31.458 389.087 31.612 386.395 32.037 383.992 L 31.533 382.467 C 30.973 371.128 31.538 356.069 32.01 342.49 L 32 342.5 Z M 160 128 L 96 128 L 96 192 C 131.3 192 160 163.3 160 128 Z M 544 320 C 508.7 320 480 348.7 480 384 L 544 384 L 544 320 Z M 320 352 C 373 352 416 309 416 256 C 416 203 373 160 320 160 C 267 160 224 203 224 256 C 224 309 267 352 320 352 Z" transform="matrix(1, 0, 0, 1, -164.001979, -296.920869)"/>
</svg>