<?xml version="1.0" encoding="utf-8"?>
<svg viewBox="-196.345 -107.944 646.095 467.432" xmlns="http://www.w3.org/2000/svg">
  <path fill="#99e6f2" d="M 378.589 -93.662 L 379.058 -93.009 C 379.702 -93.072 380.362 -93.097 381.035 -93.087 C 382.475 -93.066 384.259 -92.889 386.113 -92.534 C 392.107 -92.564 399.573 -91.644 405.025 -89.559 C 411.362 -87.135 417.723 -82.236 421.607 -77.916 C 424.916 -74.236 426.632 -70.688 427.957 -65.921 C 429.488 -60.417 430.663 -51.752 429.396 -46.285 C 429.647 -43.36 429.491 -40.065 429.368 -36.286 C 429.254 -32.772 429.121 -27.879 428.764 -23.06 C 429.262 -21.222 428.651 -14.534 428.663 -14.413 C 429.737 -3.78 429.307 10.308 428.663 18.045 C 428.602 18.78 428.545 19.473 428.489 20.13 L 428.489 226.338 C 428.489 261.638 399.789 290.338 364.489 290.338 L 122.589 290.338 C 126.289 283.138 128.489 275.038 128.489 266.338 C 128.489 237.638 105.189 214.338 76.489 214.338 L -40.911 214.338 C -36.911 197.338 -41.511 178.838 -54.711 165.538 C -75.011 145.238 -107.911 145.238 -128.211 165.538 L -147.511 184.838 L -147.511 -29.662 C -147.511 -64.962 -118.811 -93.662 -83.511 -93.662 L 158.389 -93.662 C 158.329 -93.545 158.27 -93.429 158.211 -93.312 C 168.898 -93.652 202.648 -93.662 204.489 -93.662 L 378.589 -93.662 Z M -74.511 219.338 L -97.511 242.338 L 76.489 242.338 C 89.789 242.338 100.489 253.038 100.489 266.338 C 100.489 279.638 89.789 290.338 76.489 290.338 L -97.611 290.338 L -74.611 313.338 C -65.211 322.738 -65.211 337.938 -74.611 347.238 C -84.011 356.538 -99.211 356.638 -108.511 347.238 L -172.511 283.338 C -177.011 278.838 -179.511 272.738 -179.511 266.338 C -179.511 259.938 -177.011 253.838 -172.511 249.338 L -108.511 185.338 C -99.111 175.938 -83.911 175.938 -74.611 185.338 C -65.311 194.738 -65.211 209.938 -74.611 219.238 L -74.511 219.338 Z M -19.511 -29.662 L -83.511 -29.662 L -83.511 34.338 C -48.211 34.338 -19.511 5.638 -19.511 -29.662 Z M 364.489 162.338 C 329.189 162.338 300.489 191.038 300.489 226.338 L 364.489 226.338 L 364.489 162.338 Z M 140.489 194.338 C 193.489 194.338 236.489 151.338 236.489 98.338 C 236.489 45.338 193.489 2.338 140.489 2.338 C 87.489 2.338 44.489 45.338 44.489 98.338 C 44.489 151.338 87.489 194.338 140.489 194.338 Z"/>
  <path fill="#99e6f2" d="M 490.523 -55.522 L 491.229 11.51"/>
</svg>